<?xml version="1.0" standalone="no"?>
<!DOCTYPE svg PUBLIC "-//W3C//DTD SVG 20010904//EN"
 "http://www.w3.org/TR/2001/REC-SVG-20010904/DTD/svg10.dtd">
<svg version="1.0" xmlns="http://www.w3.org/2000/svg"
 width="720.000000pt" height="720.000000pt" viewBox="0 0 720.000000 720.000000"
 preserveAspectRatio="xMidYMid meet">

<g transform="translate(0.000000,720.000000) scale(0.100000,-0.100000)"
fill="#000000" stroke="none">
<path d="M0 3603 l0 -3598 692 3 c406 2 694 8 696 13 2 5 43 10 90 11 76 2 79
2 25 5 -45 3 -63 8 -63 18 0 7 8 16 18 18 9 3 0 5 -20 6 l-38 1 0 120 c0 113
-1 120 -20 120 -18 0 -20 7 -20 80 0 73 -2 80 -20 80 -18 0 -20 7 -20 80 0 73
-2 80 -20 80 -19 0 -20 7 -20 240 0 233 -1 240 -20 240 -19 0 -20 7 -20 120 0
73 4 120 10 120 6 0 10 11 10 25 0 22 -4 25 -27 23 -22 -2 -28 1 -27 15 1 12
-5 17 -22 17 -13 0 -24 5 -24 11 0 7 -8 18 -17 26 -10 8 2 4 27 -10 28 -16 44
-31 42 -41 -2 -9 2 -16 8 -16 5 0 10 4 10 9 0 5 29 3 65 -4 35 -6 62 -8 59 -3
-3 4 1 8 8 8 8 0 28 11 46 23 26 20 49 25 129 31 80 5 121 14 221 51 149 53
222 100 248 158 11 23 35 60 55 82 72 80 130 189 153 289 11 47 29 84 61 128
25 34 45 66 45 71 0 4 4 5 10 2 5 -3 7 0 5 8 -3 7 1 28 8 47 l14 33 16 -49 c9
-27 23 -86 31 -132 15 -80 36 -134 56 -147 6 -3 10 -48 10 -101 0 -140 12
-155 160 -199 46 -14 49 -21 46 -121 -2 -54 1 -97 6 -100 16 -10 -1 -55 -41
-114 -40 -58 -171 -321 -202 -405 -11 -27 -19 -62 -19 -78 0 -15 -3 -26 -7
-24 -5 3 -7 -26 -5 -63 l4 -69 -76 -138 c-41 -76 -91 -178 -110 -227 -34 -84
-106 -330 -106 -361 0 -31 20 -13 30 28 38 146 84 295 114 366 36 85 140 280
233 434 45 77 79 155 70 164 -2 1 -30 -29 -62 -67 -32 -38 -61 -68 -63 -65
-17 16 21 118 104 283 52 103 92 176 89 162 -3 -14 6 -1 20 28 19 41 33 56 60
68 45 18 57 12 44 -23 -5 -14 -12 -50 -14 -78 -3 -29 -9 -65 -15 -79 -5 -15
-10 -37 -9 -49 0 -12 17 28 38 89 59 169 45 156 161 152 54 -1 101 -6 105 -10
3 -3 -6 -30 -21 -60 -35 -69 -72 -213 -67 -259 3 -20 0 -46 -6 -58 -19 -35 5
-24 37 17 34 44 61 112 92 239 13 51 31 106 41 123 l19 30 109 0 109 0 -68
-179 c-89 -234 -102 -272 -145 -421 -72 -249 -111 -498 -117 -740 l-2 -105
205 -3 205 -2 -4 338 c-5 371 1 436 68 732 27 122 78 263 65 180 -24 -146 -46
-305 -56 -415 -13 -143 -7 -450 12 -642 11 -103 10 -118 -4 -143 -29 -48 -25
-50 93 -50 81 0 110 3 110 13 0 6 -9 46 -20 87 -18 68 -19 86 -9 182 15 141 6
525 -15 641 -22 124 -32 357 -17 385 6 12 15 22 19 22 17 0 62 -190 73 -310
15 -163 14 -608 -3 -833 -7 -98 -11 -180 -9 -183 8 -7 390 -4 394 4 4 9 -62
559 -93 759 -22 149 -91 435 -134 562 -14 41 -26 76 -26 78 0 5 112 3 165 -3
l51 -6 23 -59 c12 -32 26 -87 31 -121 7 -48 18 -75 47 -117 22 -30 43 -53 48
-53 18 2 17 42 -3 105 -11 34 -23 79 -27 100 -3 21 -9 46 -12 55 -6 15 -5 15
10 3 28 -22 30 -6 7 39 -23 46 -22 57 7 42 26 -14 64 -97 104 -222 31 -100 33
-113 35 -280 3 -277 16 -359 99 -630 19 -62 25 -105 25 -160 -1 -41 -1 -80 -1
-86 1 -12 622 -21 641 -9 8 5 7 11 -1 21 -9 11 -7 14 12 15 35 1 62 7 111 24
51 17 58 18 58 6 0 -6 -19 -14 -42 -19 -24 -6 -35 -10 -25 -11 10 -1 16 -5 12
-10 -3 -6 58 -10 157 -10 99 -1 164 -5 166 -11 3 -7 288 -10 823 -10 l819 0 0
3595 0 3596 -1061 -1 c-596 -1 -1071 -5 -1085 -10 -18 -7 -22 -6 -17 5 4 13
-312 15 -2516 15 l-2521 0 0 -3597z m5218 3570 c-10 -2 -26 -2 -35 0 -10 3 -2
5 17 5 19 0 27 -2 18 -5z m-218 -37 c0 -8 8 -17 18 -19 10 -3 6 -5 -11 -6 -15
0 -37 5 -48 12 -17 10 -23 9 -26 -1 -3 -6 -9 -10 -14 -6 -5 3 -9 -4 -9 -15 0
-16 6 -21 25 -21 18 0 25 -5 25 -20 0 -18 7 -20 70 -20 l70 0 0 -30 c0 -16 5
-30 10 -30 6 0 10 -9 10 -20 0 -11 5 -20 10 -20 6 0 10 -13 10 -30 0 -16 5
-30 10 -30 6 0 10 -9 10 -20 0 -11 5 -20 10 -20 6 0 10 9 10 20 0 17 7 20 50
20 l50 0 0 -40 0 -40 40 0 40 0 0 -40 c0 -33 3 -40 20 -40 16 0 20 -7 20 -30
0 -23 4 -30 20 -30 17 0 20 -7 20 -50 l0 -49 78 -3 77 -3 3 -47 c3 -40 6 -48
23 -48 10 0 19 -4 19 -10 0 -5 -9 -10 -20 -10 -13 0 -20 -7 -20 -20 0 -18 7
-20 60 -20 l60 0 0 -70 c0 -63 2 -70 20 -70 11 0 20 -4 20 -10 0 -5 -9 -10
-20 -10 -11 0 -20 -4 -20 -10 0 -5 9 -10 20 -10 17 0 20 -7 20 -40 0 -33 3
-40 20 -40 11 0 20 -4 20 -10 0 -5 -9 -10 -20 -10 -13 0 -20 -7 -20 -20 0 -13
7 -20 20 -20 17 0 20 -7 20 -40 l0 -40 40 0 c40 0 40 0 40 -39 0 -30 4 -40 20
-44 19 -5 20 -14 20 -121 0 -109 1 -116 20 -116 18 0 20 -7 20 -70 l0 -70 40
0 40 0 0 -40 c0 -33 3 -40 20 -40 11 0 20 -4 20 -10 0 -5 9 -10 20 -10 18 0
20 -7 20 -60 0 -53 -2 -60 -20 -60 -13 0 -20 -7 -20 -20 0 -17 7 -20 40 -20
l40 0 0 -80 0 -80 30 0 30 0 0 -180 0 -180 -30 0 c-23 0 -30 -4 -30 -20 0 -16
7 -20 30 -20 27 0 30 -3 30 -30 0 -16 5 -30 10 -30 6 0 10 -9 10 -20 0 -11 5
-20 10 -20 6 0 10 -30 10 -70 0 -40 -4 -70 -10 -70 -6 0 -10 -33 -10 -80 l0
-80 35 0 35 0 0 -80 c0 -64 -3 -80 -15 -80 -13 0 -15 -60 -15 -480 0 -473 0
-480 -20 -480 -19 0 -20 -7 -20 -160 l0 -160 -40 0 -40 0 -1 -282 c-1 -156 0
-298 1 -317 1 -22 -2 -31 -9 -27 -21 13 -33 -5 -14 -21 17 -13 16 -14 -10 -10
-26 4 -27 4 -11 -14 9 -11 14 -19 11 -19 -10 0 -46 38 -41 42 2 3 -24 5 -59 6
-34 0 -66 1 -70 1 -5 1 -5 7 -1 13 4 7 4 10 -1 6 -5 -5 -23 4 -42 18 -54 41
-101 57 -151 49 -25 -4 -50 -9 -57 -11 -9 -4 -14 14 -19 63 -4 37 -8 78 -9 90
-1 12 -4 20 -6 18 -5 -5 -73 185 -74 207 -1 9 -4 15 -7 13 -3 -2 -27 39 -54
92 -36 74 -46 102 -41 124 4 16 10 29 14 29 4 0 7 8 8 18 0 9 4 51 8 93 l8 75
46 17 c25 9 60 29 78 44 l32 28 -22 50 c-12 28 -35 73 -51 99 l-29 49 22 44
c11 24 21 49 21 56 0 14 -28 40 -54 50 -10 4 -14 12 -10 18 4 7 3 9 -3 6 -6
-4 -56 27 -113 69 -129 95 -250 164 -413 237 -110 48 -138 57 -188 57 -54 0
-62 3 -99 36 -39 35 -43 37 -96 31 -54 -6 -58 -4 -116 39 -33 24 -68 44 -77
43 -9 0 -43 -8 -76 -18 l-60 -17 -110 48 -110 47 -6 93 c-7 100 -6 108 17 108
17 0 88 35 124 61 29 22 103 51 208 82 39 12 72 25 72 28 0 4 -30 10 -67 14
-110 12 -117 19 -43 43 126 40 216 63 315 81 91 17 97 19 73 29 -47 19 -137
44 -226 61 l-86 17 109 61 c115 65 283 147 675 330 68 32 91 47 80 53 -15 8
-424 30 -630 33 l-115 2 65 32 c109 53 310 127 458 168 34 10 62 22 62 26 0 5
-3 9 -7 9 -5 0 -57 9 -116 20 -171 31 -270 42 -446 49 l-164 6 134 37 c141 39
351 82 457 94 59 6 88 24 40 24 -111 0 -581 -102 -721 -156 -9 -3 -20 10 -31
40 -20 52 -80 146 -124 195 -17 19 -29 38 -25 44 3 6 2 7 -4 4 -6 -4 -30 11
-53 32 -67 60 -142 101 -248 137 l-95 32 -4 68 c-5 101 -30 225 -63 317 -17
44 -29 81 -27 83 4 3 134 63 225 103 108 48 211 95 277 127 28 13 54 24 58 24
4 0 55 23 113 50 58 28 116 50 130 50 14 0 22 4 19 10 -3 6 -4 10 -1 10 2 0
12 3 22 7 10 4 15 2 11 -3 -6 -11 37 -13 48 -2 3 3 0 5 -7 5 -28 -4 -18 19 14
27 18 6 36 14 39 19 4 5 27 12 53 14 25 3 46 9 46 13 0 14 -64 18 -75 4 -12
-15 -95 -45 -107 -38 -4 3 -8 1 -8 -3 0 -12 -68 -36 -80 -28 -6 4 -9 2 -8 -3
2 -6 -1 -10 -6 -10 -5 0 -12 -4 -15 -9 -3 -5 -46 -24 -96 -43 -49 -18 -94 -37
-99 -42 -6 -4 -16 -8 -24 -8 -8 0 -28 -6 -45 -14 -88 -40 -176 -76 -185 -76
-6 0 -23 -6 -39 -14 -15 -8 -39 -19 -53 -24 -14 -6 -41 -17 -60 -25 -19 -8
-62 -24 -95 -37 -33 -13 -65 -27 -71 -32 -7 -5 -15 2 -23 18 -14 31 -16 29 34
47 22 8 103 41 180 72 77 32 149 58 161 59 12 0 20 4 18 8 -3 4 8 10 23 14 15
4 33 10 38 14 23 17 127 50 137 44 6 -4 8 -3 5 3 -6 9 107 58 268 117 33 12
82 32 109 44 27 12 53 22 59 22 6 0 29 8 51 19 181 82 266 107 266 77z m-1370
-547 c14 -25 12 -27 -26 -35 -26 -5 -32 -2 -42 21 -7 14 -9 24 -4 21 4 -2 14
-1 22 5 23 14 38 11 50 -12z m75 -172 c29 -92 55 -241 54 -312 0 -27 -2 -45
-4 -40 -56 176 -93 284 -116 343 -16 40 -29 75 -29 77 0 2 12 11 27 19 34 17
35 16 68 -87z m-779 -111 c9 -20 8 -25 -5 -29 -38 -12 -180 -66 -224 -86 -35
-16 -58 -20 -80 -15 -43 9 -72 27 -34 21 15 -2 25 -2 22 1 -3 3 25 18 62 34
38 16 77 33 88 38 62 28 141 59 150 60 6 0 15 -11 21 -24z m41 -126 c-3 -11
-2 -20 2 -20 8 0 34 -100 28 -106 -2 -2 -49 13 -105 33 l-101 37 57 26 c31 14
68 31 82 37 36 17 43 15 37 -7z m-1166 -336 c8 -10 3 -10 -20 2 -17 9 -31 17
-31 19 0 8 40 -9 51 -21z m-26 -14 c8 -13 -5 -13 -25 0 -13 8 -13 10 2 10 9 0
20 -4 23 -10z m245 -84 c0 -2 -8 -2 -19 1 -10 3 -22 0 -25 -6 -4 -6 -17 -11
-29 -10 -20 1 -19 2 6 12 15 6 27 15 27 19 0 5 9 4 20 -2 11 -6 20 -12 20 -14z
m260 -172 c0 -3 -8 0 -18 5 -14 7 -19 6 -19 -3 0 -8 10 -12 26 -10 31 4 98
-44 216 -153 73 -67 77 -72 54 -77 -13 -3 -82 -15 -154 -27 -71 -12 -159 -33
-195 -46 -36 -14 -73 -25 -82 -26 -9 -1 -14 -5 -12 -9 6 -10 -10 -11 -20 -1
-13 14 -36 11 -36 -4 0 -13 3 -13 15 -3 11 9 15 9 15 1 0 -12 -57 -38 -72 -33
-5 1 -8 -2 -8 -8 0 -5 -7 -10 -15 -10 -8 0 -15 -4 -15 -10 0 -5 -6 -10 -14
-10 -8 0 -18 -5 -21 -10 -10 -17 16 -41 36 -35 27 9 144 -26 127 -37 -9 -7 -8
-8 6 -4 25 8 262 -83 469 -180 20 -10 37 -22 37 -27 0 -4 -21 -17 -47 -28 -27
-11 -77 -35 -113 -52 -86 -42 -84 -42 -75 -26 5 8 5 11 1 7 -4 -3 -8 -10 -7
-15 0 -4 -28 -26 -62 -47 l-62 -40 133 -22 c73 -12 140 -25 147 -28 11 -4 13
-18 9 -58 l-6 -53 31 48 c17 26 33 47 36 47 13 0 223 -72 244 -84 22 -12 21
-13 -27 -19 -66 -8 -162 -36 -162 -48 0 -5 18 -9 40 -9 35 0 299 -62 388 -91
l32 -11 0 -92 0 -92 -62 -27 c-68 -29 -93 -34 -82 -15 4 6 3 8 -4 4 -6 -3 -35
6 -65 20 l-55 27 -48 -28 c-27 -16 -79 -52 -116 -82 -61 -48 -72 -53 -117 -53
-34 0 -69 -9 -113 -30 -34 -16 -77 -30 -94 -30 -72 0 -385 -122 -507 -197 -21
-13 -43 -21 -49 -17 -6 4 -8 3 -5 -3 9 -14 -70 -66 -85 -57 -6 4 -8 3 -5 -3 4
-6 -2 -18 -13 -28 -19 -17 -19 -18 1 -56 l19 -39 -21 -30 c-12 -16 -26 -27
-30 -24 -5 3 -7 -1 -4 -8 7 -19 -21 -51 -37 -43 -10 6 -10 5 -1 -5 9 -9 5 -26
-15 -74 -14 -33 -31 -68 -37 -76 -6 -8 -16 -27 -22 -42 -10 -22 -9 -29 9 -44
11 -10 27 -19 36 -19 9 0 17 -7 17 -15 0 -9 8 -14 19 -12 11 2 15 -1 11 -7 -3
-6 0 -9 8 -5 21 8 34 -15 41 -73 4 -28 13 -67 21 -86 8 -19 11 -37 8 -41 -4
-3 -1 -6 5 -6 19 0 15 -14 -47 -142 -69 -146 -116 -271 -136 -365 -8 -37 -15
-71 -15 -75 0 -5 -17 -8 -37 -8 -42 0 -115 -24 -155 -52 -30 -21 -94 -17 -113
7 -6 7 -9 106 -7 263 2 214 5 252 17 252 12 0 15 16 15 78 0 44 3 134 7 200 5
110 8 122 25 122 16 0 18 9 18 80 0 47 -4 80 -10 80 -6 0 -10 29 -10 66 0 76
12 94 64 94 l36 0 0 80 c0 47 -4 80 -10 80 -5 0 -10 9 -10 20 0 11 -4 20 -10
20 -6 0 -10 27 -10 60 l0 60 40 0 40 0 0 150 c0 143 1 150 20 150 11 0 20 5
20 10 0 6 9 10 20 10 18 0 20 7 20 80 0 73 2 80 20 80 18 0 20 7 20 80 0 73 2
80 20 80 16 0 20 -7 20 -30 0 -23 4 -30 20 -30 16 0 20 7 20 30 0 27 3 30 30
30 23 0 30 4 30 20 0 11 -4 20 -10 20 -5 0 -10 9 -10 20 0 13 -7 20 -20 20
-17 0 -20 7 -20 40 0 33 3 40 20 40 13 0 20 7 20 20 0 11 5 20 10 20 6 0 10 9
10 20 0 11 5 20 10 20 6 0 10 18 10 40 0 33 3 40 20 40 17 0 20 7 20 50 0 43
3 50 20 50 19 0 20 7 20 90 0 83 1 90 20 90 13 0 20 7 20 20 0 11 5 20 10 20
6 0 10 9 10 20 0 11 5 20 10 20 6 0 10 9 10 20 0 11 -4 20 -10 20 -5 0 -10 18
-10 40 0 30 4 40 16 40 26 0 44 26 44 64 0 29 4 36 19 36 14 0 21 8 23 28 3
23 8 27 41 30 36 3 37 4 37 43 0 39 0 39 40 39 l40 0 0 40 c0 31 4 40 18 41
14 0 13 3 -5 16 -26 18 -30 43 -8 43 28 0 12 34 -18 36 -12 1 -15 -2 -9 -10 4
-6 7 -27 6 -46 -1 -19 -3 -45 -3 -57 -1 -30 -41 -33 -41 -3 0 11 5 20 10 20 6
0 10 18 10 40 0 22 -4 40 -10 40 -20 0 -9 16 18 26 24 9 37 4 130 -59 56 -38
102 -71 102 -73z m-550 72 c0 -2 -11 -11 -25 -20 -14 -9 -25 -13 -25 -8 0 5
10 14 23 20 27 13 27 13 27 8z m2008 -473 c-15 -101 -59 -264 -105 -392 -24
-67 -42 -125 -40 -128 13 -13 120 317 153 472 l17 79 34 -93 c51 -143 73 -237
72 -315 0 -39 -4 -80 -8 -90 -10 -27 -181 -175 -210 -183 -14 -3 -27 0 -33 8
-7 10 -8 5 -5 -18 2 -21 -1 -34 -11 -38 -20 -7 -29 -6 -17 3 6 4 8 20 4 37
l-7 30 -1 -32 c0 -18 -6 -33 -12 -33 -8 0 -10 15 -7 45 6 53 2 58 -10 13 l-9
-33 -76 74 -76 73 41 82 c58 116 153 272 256 419 29 42 55 77 56 77 2 0 -1
-26 -6 -57z m-400 -123 c-21 -83 -30 -142 -31 -211 l-2 -96 -61 55 -62 55 19
70 c11 38 27 84 35 101 14 27 125 149 130 143 1 -1 -12 -54 -28 -117z m-273 0
c-3 -5 -1 -47 5 -92 9 -77 9 -84 -10 -98 -11 -9 -22 -33 -26 -57 -5 -36 -4
-43 10 -43 9 0 21 10 26 23 7 17 9 18 9 5 1 -12 9 -18 26 -18 24 0 25 -3 25
-58 0 -77 21 -143 62 -196 39 -52 52 -61 98 -70 26 -5 31 -4 20 3 -8 6 -24 11
-36 11 -49 0 -119 112 -130 207 -7 53 -6 57 9 44 15 -12 17 -11 17 8 0 11 2
21 6 21 6 0 107 -70 141 -97 12 -10 27 -31 34 -48 10 -27 12 -28 18 -11 9 23
16 14 25 -31 10 -44 32 -61 57 -45 17 11 24 9 46 -8 14 -11 32 -20 39 -20 8 0
23 -5 34 -12 20 -13 23 -12 111 31 25 12 40 14 51 8 23 -15 48 -1 54 30 4 21
23 40 77 75 100 65 126 76 138 57 13 -18 5 -110 -13 -146 -15 -31 -63 -58
-120 -68 -21 -4 -40 -10 -43 -15 -9 -14 119 20 145 39 17 12 32 40 47 92 24
81 30 125 13 99 -8 -13 -10 -13 -10 1 0 21 52 43 79 34 17 -5 21 -2 21 15 0
12 -5 30 -10 41 -9 15 -7 23 6 37 10 9 22 17 27 17 6 0 13 9 18 20 10 27 10 8
0 -38 -8 -32 -7 -37 8 -35 20 4 21 6 -29 -132 -23 -63 -62 -171 -86 -239 -24
-69 -52 -138 -62 -155 -19 -32 -260 -200 -339 -237 -64 -30 -104 -18 -248 71
-219 137 -205 119 -324 409 -40 96 -78 186 -85 200 -8 14 -16 37 -20 51 -7 24
-6 24 9 -2 9 -16 17 -28 18 -28 1 0 1 58 -1 130 -3 125 -3 131 24 180 15 27
31 50 36 50 5 0 7 -4 3 -10z m1022 -4 c-3 -8 1 -20 9 -26 17 -15 19 -106 3
-160 -11 -35 -15 -39 -53 -42 -22 -3 -49 -8 -58 -12 -12 -6 -7 12 20 66 32 62
48 104 68 176 2 6 6 12 10 12 3 0 4 -6 1 -14z m-1212 -204 c49 -27 50 -29 112
-172 34 -80 63 -149 63 -153 0 -20 -43 18 -56 49 -10 25 -20 34 -37 33 l-22 0
23 -9 c12 -5 22 -17 22 -26 0 -10 8 -26 17 -36 17 -19 16 -19 -12 -12 -83 20
-147 125 -100 164 20 17 32 5 15 -15 -9 -10 -9 -15 -1 -15 6 0 16 11 22 24 15
33 -13 90 -60 122 -54 37 -61 33 -61 -35 0 -33 4 -62 8 -65 5 -3 7 19 4 49 -5
60 2 66 44 38 19 -12 22 -18 12 -24 -10 -7 -9 -9 4 -9 10 0 22 -8 27 -19 8
-14 5 -21 -14 -31 -62 -33 4 -190 79 -190 9 0 30 -13 48 -29 18 -16 41 -30 51
-32 11 -2 25 -19 33 -38 l14 -33 -48 7 c-142 21 -272 190 -289 378 -5 56 -3
70 12 87 23 26 30 25 90 -8z m1511 -2 c28 -61 -29 -254 -101 -339 -52 -61
-185 -131 -185 -97 0 6 -5 4 -10 -4 -13 -19 -13 -8 0 24 5 14 16 26 24 26 9 0
20 9 26 20 6 10 28 24 49 30 52 14 84 41 105 89 21 45 16 81 -14 111 -23 23
-16 50 12 50 13 0 18 5 15 13 -3 7 3 19 13 25 21 13 29 0 32 -51 1 -22 3 -17
7 18 8 64 0 74 -43 51 -67 -36 -100 -106 -68 -146 11 -14 22 -36 26 -50 3 -14
3 -19 0 -12 -5 10 -10 10 -24 -3 -12 -11 -20 -13 -25 -6 -14 24 -45 11 -62
-26 -10 -20 -23 -38 -30 -40 -10 -4 18 87 67 212 18 47 58 93 98 115 47 25 74
22 88 -10z m-116 -165 c0 -8 -2 -15 -4 -15 -2 0 -6 7 -10 15 -3 8 -1 15 4 15
6 0 10 -7 10 -15z m17 -47 c-3 -7 -5 -2 -5 12 0 14 2 19 5 13 2 -7 2 -19 0
-25z m-17 -51 c0 -2 -10 -12 -22 -23 l-23 -19 19 23 c18 21 26 27 26 19z m-71
-48 c1 -3 -5 -6 -12 -6 -9 0 -12 9 -9 26 5 23 6 24 13 6 4 -11 8 -23 8 -26z
m-59 -34 c-25 -27 -42 -33 -34 -12 2 7 14 17 27 23 32 17 33 16 7 -11z m-1076
-5 c4 -5 6 -14 4 -20 -2 -8 -14 -3 -33 14 -30 27 -30 27 -5 20 14 -3 29 -10
34 -14z m996 -167 c-11 -17 -11 -17 -6 0 3 10 6 24 7 30 0 9 2 9 5 0 3 -7 0
-20 -6 -30z m-872 -111 c15 -23 151 -119 282 -197 56 -34 73 -40 125 -40 60 0
61 0 234 113 165 109 174 113 202 102 16 -7 29 -19 29 -27 0 -8 4 -12 8 -9 5
3 9 -1 9 -9 0 -8 -4 -12 -8 -9 -5 3 -7 -45 -6 -106 1 -60 0 -110 -3 -110 -3 0
-6 -12 -7 -28 -2 -46 -26 -132 -36 -132 -5 0 -7 18 -3 43 8 56 16 209 10 177
-7 -33 -35 -112 -46 -126 -4 -6 -6 -13 -3 -16 3 -3 -1 -11 -10 -18 -8 -7 -15
-17 -15 -23 0 -8 -129 -247 -134 -247 0 0 -25 -9 -54 -20 l-52 -20 31 52 c76
130 120 244 168 435 29 112 25 127 -5 23 -64 -218 -79 -260 -116 -335 -67
-134 -105 -190 -142 -210 -34 -19 -34 -19 -73 7 -30 20 -54 54 -116 171 -43
80 -97 193 -120 251 -23 59 -43 102 -45 96 -9 -26 106 -288 188 -427 17 -29
29 -53 26 -53 -12 0 -96 42 -96 48 0 4 -38 57 -84 116 -53 68 -93 131 -107
168 -12 32 -24 56 -27 54 -7 -7 37 -115 62 -151 11 -16 49 -65 84 -107 35 -43
60 -78 55 -78 -4 0 -32 9 -62 20 -72 28 -185 49 -304 57 l-97 6 -25 79 c-29
93 -57 244 -50 268 3 10 57 42 123 72 l117 55 6 -51 c4 -28 9 -72 12 -99 l5
-47 -58 -43 c-83 -60 -94 -87 -14 -33 74 51 80 53 88 29 2 -10 2 -2 -1 18 -11
78 -18 239 -15 344 l3 110 25 -59 c14 -33 33 -70 42 -84z m889 6 c-2 -13 -4
-3 -4 22 0 25 2 35 4 23 2 -13 2 -33 0 -45z m-1256 -110 c-44 -47 -51 -97 -41
-318 15 -340 66 -610 146 -778 82 -170 227 -364 413 -552 109 -109 270 -260
279 -260 3 0 44 35 91 78 47 43 116 104 154 136 88 77 360 398 433 512 80 125
163 342 219 574 19 80 25 131 25 215 0 146 -15 265 -39 320 -18 40 -18 44 -3
36 37 -20 91 -88 106 -131 21 -64 38 -216 38 -339 1 -107 -10 -154 -66 -283
-9 -21 -13 -38 -9 -38 13 0 71 92 94 150 21 54 33 193 42 497 2 78 3 81 20 65
10 -8 26 -34 36 -56 10 -23 28 -49 39 -60 18 -16 24 -17 38 -5 9 7 20 24 25
36 7 19 13 22 36 17 52 -13 180 -122 210 -179 16 -31 -59 -139 -109 -160 -51
-20 -51 -20 -45 15 4 16 2 32 -3 35 -6 3 -10 19 -10 35 0 19 -9 35 -26 49 -30
24 -54 27 -54 9 4 -138 22 -272 44 -333 l25 -70 -52 -54 c-117 -121 -139 -142
-144 -137 -4 4 90 129 125 165 12 13 10 77 -4 90 -4 5 -74 -58 -101 -89 -7 -8
-30 -49 -52 -90 -43 -82 -270 -388 -484 -652 -184 -229 -508 -479 -619 -478
-44 1 -155 49 -209 91 -157 122 -290 258 -375 384 -40 61 -87 126 -104 145
-28 32 -31 33 -25 10 19 -69 58 -137 124 -212 13 -15 31 -39 40 -52 104 -156
336 -433 448 -536 38 -34 99 -80 136 -102 37 -23 66 -42 64 -44 -9 -10 -78 29
-137 76 -36 29 -85 66 -110 83 -25 17 -72 59 -105 92 -33 33 -103 101 -155
151 -176 166 -364 374 -424 469 -28 43 -69 85 -84 85 -12 0 22 -73 69 -147 12
-18 19 -33 16 -33 -3 0 -36 46 -73 103 -135 206 -177 267 -191 278 -11 10 -12
8 -6 -7 12 -32 63 -124 151 -274 47 -80 91 -156 98 -170 38 -72 118 -168 281
-337 99 -104 185 -191 189 -196 18 -17 -34 0 -66 23 -116 81 -351 260 -444
339 -70 59 -117 91 -132 91 -41 0 -27 -23 49 -80 81 -62 206 -160 223 -176 6
-5 31 -26 54 -45 84 -67 176 -147 213 -186 l38 -40 -45 -22 c-61 -28 -105 -27
-246 9 -65 16 -130 30 -144 30 -37 0 -113 -36 -126 -60 -17 -32 -59 -44 -81
-24 -16 14 -19 32 -19 103 1 79 2 84 16 66 8 -11 20 -39 26 -63 13 -52 21 -58
37 -28 11 20 9 30 -12 72 -14 27 -45 68 -70 91 -49 46 -50 49 -62 203 -10 127
-25 192 -63 272 l-36 78 12 77 c7 43 17 110 23 148 22 139 -12 351 -65 404
-14 13 -28 22 -31 19 -3 -3 1 -33 10 -66 14 -58 14 -64 -4 -112 -21 -56 -47
-100 -59 -100 -4 0 -100 104 -212 230 -137 154 -222 259 -257 318 -29 48 -53
90 -53 93 0 15 123 97 215 144 167 84 417 177 433 160 3 -3 0 -16 -6 -30 -13
-29 -16 -135 -4 -135 4 0 18 29 30 65 13 35 33 76 44 90 32 40 93 75 130 74
23 -1 26 -3 11 -6 -12 -2 -25 -12 -28 -22 -7 -22 21 -363 36 -441 23 -115 52
-207 87 -270 41 -75 144 -239 181 -290 14 -19 26 -37 28 -39 2 -2 6 -2 9 2 4
3 -13 39 -36 79 -138 236 -157 276 -178 358 -34 133 -42 211 -42 408 l0 184
50 56 c28 32 76 76 108 99 62 46 96 58 63 21z m1296 -20 c-3 -7 -5 -2 -5 12 0
14 2 19 5 13 2 -7 2 -19 0 -25z m103 8 c0 -3 -4 -8 -10 -11 -5 -3 -10 -1 -10
4 0 6 5 11 10 11 6 0 10 -2 10 -4z m35 -26 c-3 -5 0 -7 7 -5 7 3 52 -14 98
-38 l85 -43 3 -52 c3 -59 -17 -142 -53 -212 l-23 -45 -123 -11 -124 -11 -20
26 c-18 23 -39 131 -25 131 3 0 10 10 15 23 6 12 21 24 35 26 14 1 28 8 31 13
5 7 15 5 30 -6 13 -9 27 -16 31 -16 15 0 -4 52 -39 111 -43 71 -39 92 20 106
57 14 59 14 52 3z m-148 -102 c-3 -7 -5 -2 -5 12 0 14 2 19 5 13 2 -7 2 -19 0
-25z m-30 -20 c-3 -7 -5 -2 -5 12 0 14 2 19 5 13 2 -7 2 -19 0 -25z m103 -42
c-7 -7 -14 -6 -21 1 -9 9 -7 12 9 10 14 -1 18 -5 12 -11z m-60 -6 c13 -8 13
-11 1 -22 -9 -8 -12 -9 -7 -1 3 6 -2 16 -11 22 -10 6 -13 10 -8 11 6 0 17 -5
25 -10z m-150 -128 c0 -5 -7 -17 -15 -28 -14 -18 -14 -17 -4 9 12 27 19 34 19
19z m-36 -80 c3 -5 -1 -9 -9 -9 -8 0 -12 4 -9 9 3 4 7 8 9 8 2 0 6 -4 9 -8z
m391 -83 c-80 -82 -268 -152 -525 -195 -148 -24 -305 -12 -629 51 -140 28
-163 42 -208 129 l-24 48 63 -6 c232 -24 333 -52 521 -146 l99 -49 40 30 c23
16 45 29 50 29 6 0 61 20 123 45 185 73 309 101 465 104 l64 1 -39 -41z m-445
3 c0 -5 -7 -17 -15 -28 -14 -18 -14 -17 -4 9 12 27 19 34 19 19z m75 -2 c-27
-12 -43 -12 -25 0 8 5 22 9 30 9 10 0 8 -3 -5 -9z m-2398 -415 c8 -9 13 -18
11 -21 -3 -2 -13 5 -23 16 -21 23 -11 27 12 5z m3943 -88 c0 -7 -9 -13 -21
-13 -19 0 -19 1 -3 13 10 7 19 13 21 13 2 0 3 -6 3 -13z m-3640 -97 c0 -3 -20
-43 -44 -90 l-44 -84 -26 58 c-31 70 -56 151 -56 183 0 22 2 22 85 -19 47 -23
85 -45 85 -48z m3555 60 c-3 -5 -12 -10 -18 -10 -7 0 -6 4 3 10 19 12 23 12
15 0z m57 -47 c-7 -89 -41 -143 -58 -90 -3 12 -19 41 -35 64 -25 38 -26 43
-11 55 15 11 15 11 4 -3 -10 -13 -9 -19 3 -29 14 -11 17 -10 22 9 4 14 16 24
35 28 15 3 31 10 34 14 10 16 10 10 6 -48z m25 10 c-3 -10 -5 -4 -5 12 0 17 2
24 5 18 2 -7 2 -21 0 -30z m-142 -35 c7 -8 6 -8 -4 -3 -17 10 -7 -10 22 -42
10 -12 16 -26 13 -31 -3 -6 -1 -12 5 -14 6 -2 17 -19 24 -38 8 -19 39 -98 71
-175 31 -77 57 -152 57 -167 0 -16 3 -28 7 -28 4 0 7 -15 7 -32 -3 -109 4
-258 12 -258 5 0 12 10 14 23 4 20 4 20 6 1 0 -11 -10 -31 -24 -44 -14 -13
-25 -20 -25 -16 0 5 -17 -4 -37 -20 -20 -15 -33 -21 -28 -14 5 9 -5 6 -26 -7
-19 -11 -33 -26 -31 -32 1 -7 -2 -10 -8 -6 -5 3 -27 1 -47 -4 -68 -18 -240
-13 -236 7 2 7 -3 12 -10 12 -8 0 -24 12 -38 28 l-24 27 30 -25 29 -25 -29 40
c-16 22 -39 50 -52 62 -17 16 -30 49 -44 115 -32 145 -46 254 -39 302 19 128
284 401 370 380 14 -3 30 -10 35 -16z m-3353 -58 c113 -64 212 -145 235 -195
8 -16 23 -46 34 -65 13 -24 19 -53 18 -90 l-2 -55 -7 68 c-10 97 -25 101 -27
8 -3 -91 -29 -211 -73 -331 -25 -69 -41 -95 -83 -138 -59 -60 -154 -122 -186
-122 -32 0 -80 27 -131 75 -25 23 -58 49 -72 59 -15 10 -41 40 -58 66 -29 45
-31 54 -25 107 17 149 93 373 188 556 33 64 66 117 71 117 6 0 59 -27 118 -60z
m3456 -55 c-8 -19 -14 -22 -20 -13 -4 7 -8 18 -8 23 0 6 5 3 10 -5 8 -13 10
-12 10 3 0 9 4 17 10 17 6 0 5 -10 -2 -25z m-3697 -55 c4 0 -5 -29 -21 -64
-70 -154 -146 -428 -132 -478 1 -4 -17 2 -39 14 -40 21 -41 21 -34 65 12 85
77 269 138 393 58 119 61 124 71 98 5 -16 13 -28 17 -28z m3723 34 c3 -8 2
-12 -4 -9 -6 3 -10 10 -10 16 0 14 7 11 14 -7z m13 -56 c-3 13 -1 20 5 16 5
-4 8 -17 5 -30 -2 -13 2 -29 9 -35 8 -6 14 -16 14 -22 0 -6 9 -20 19 -31 10
-12 26 -41 34 -66 9 -25 27 -74 41 -109 16 -41 23 -73 19 -89 -4 -18 -2 -23 6
-18 8 6 10 -4 5 -36 -9 -61 -21 -67 -34 -17 -20 75 -80 250 -117 339 -58 141
-58 140 -28 105 24 -27 26 -28 22 -7z m-907 -247 c15 -4 33 -23 48 -53 23 -45
23 -47 6 -73 -17 -26 -18 -26 -25 -7 -9 25 -26 36 -34 22 -3 -5 -17 -10 -31
-10 l-25 0 32 39 c17 22 28 44 25 49 -10 17 -69 20 -104 5 -20 -8 -57 -13 -90
-11 -56 3 -57 2 -54 -22 1 -14 4 -33 5 -42 2 -23 18 -23 49 1 13 11 37 23 51
26 22 6 27 4 27 -11 0 -32 -15 -44 -61 -52 -35 -6 -51 -4 -75 10 -26 16 -36
17 -58 7 -29 -14 -31 -20 -14 -37 6 -6 11 -27 10 -46 -1 -26 5 -39 20 -50 21
-15 21 -15 -7 -13 -28 2 -29 1 -26 -48 3 -66 20 -83 64 -67 57 20 67 17 56
-20 -11 -41 3 -58 29 -35 11 10 35 17 60 17 36 0 42 3 42 21 0 12 -8 23 -20
26 -11 3 -17 9 -15 14 3 4 12 6 19 3 7 -3 19 2 26 10 7 9 17 13 22 10 6 -4 5
2 -1 14 -6 11 -8 28 -5 36 5 13 -1 16 -31 16 -21 0 -34 4 -30 10 8 14 48 13
62 -1 9 -9 20 0 44 35 40 57 54 48 54 -34 0 -49 -5 -65 -30 -102 -36 -52 -98
-85 -174 -92 -29 -3 -60 -11 -67 -17 -22 -18 -66 6 -119 62 -83 89 -94 148
-49 250 32 71 105 142 161 157 43 11 196 13 233 3z m-3750 -51 c0 -5 -2 -10
-4 -10 -3 0 -8 5 -11 10 -3 6 -1 10 4 10 6 0 11 -4 11 -10z m157 -7 c-4 -3 -1
-13 6 -22 11 -14 10 -14 -5 -2 -21 15 -23 31 -6 31 6 0 8 -3 5 -7z m-36 -23
c27 -13 101 -144 74 -134 -7 3 -30 -9 -49 -28 l-36 -33 20 -42 c10 -24 24 -43
30 -43 6 0 2 12 -9 26 -27 35 -27 69 1 88 32 23 54 20 77 -10 27 -34 26 -40
-5 -69 -15 -14 -21 -25 -15 -25 7 0 9 -4 6 -10 -14 -23 -59 -9 -109 35 -75 67
-74 66 -109 120 -26 40 -41 53 -77 64 l-44 14 29 12 c17 7 53 22 80 33 53 22
93 22 136 2z m1343 -14 c-3 -15 -8 -25 -11 -23 -2 3 -1 17 3 31 3 15 8 25 11
23 2 -3 1 -17 -3 -31z m2633 4 c-4 -17 -2 -30 3 -30 6 0 10 -5 10 -12 0 -8 -4
-8 -14 2 -13 14 -12 70 1 70 3 0 3 -13 0 -30z m-2670 -17 c-3 -10 -5 -4 -5 12
0 17 2 24 5 18 2 -7 2 -21 0 -30z m-1232 -8 c1 -14 -2 -22 -5 -19 -3 3 -5 16
-5 29 -1 14 2 22 5 19 3 -3 5 -16 5 -29z m-320 6 c-3 -6 -11 -11 -16 -11 -5 0
-4 6 3 14 14 16 24 13 13 -3z m4852 -3 c-3 -8 -6 -5 -6 6 -1 11 2 17 5 13 3
-3 4 -12 1 -19z m781 -29 c-19 -12 -25 -11 -25 5 0 8 8 11 20 8 14 -4 16 -7 5
-13z m127 11 c3 -5 2 -10 -4 -10 -5 0 -13 5 -16 10 -3 6 -2 10 4 10 5 0 13 -4
16 -10z m-5732 -53 c52 -58 62 -77 41 -77 -39 0 -128 -57 -238 -152 -5 -4 -7
-10 -5 -13 3 -2 32 18 65 46 66 56 175 114 198 106 8 -3 24 -24 36 -47 21 -42
33 -52 25 -22 -3 9 1 5 8 -11 7 -15 16 -25 18 -22 3 3 11 -6 17 -21 9 -19 9
-24 0 -18 -8 5 -9 2 -5 -9 4 -12 1 -17 -9 -17 -31 0 -139 -65 -194 -117 -67
-64 -63 -70 5 -8 51 46 151 105 178 105 9 0 28 -15 42 -32 15 -18 24 -25 21
-15 -3 10 -2 15 4 12 12 -7 30 -72 30 -105 -1 -19 -19 -40 -70 -82 -39 -32
-77 -58 -85 -58 -8 0 -15 -4 -15 -10 0 -22 31 -8 87 40 79 69 97 72 140 26 39
-41 52 -91 32 -127 -7 -13 -12 -30 -11 -36 2 -8 -3 -10 -14 -6 -13 5 -15 2 -9
-18 4 -17 3 -20 -3 -10 -8 11 -12 10 -21 -7 -7 -13 -25 -24 -49 -27 -58 -10
-73 -16 -67 -26 8 -11 -52 0 -86 17 -14 7 -34 24 -43 38 -9 14 -47 41 -84 60
-38 19 -73 40 -79 48 -17 20 -27 68 -14 68 6 0 11 11 11 24 0 15 11 32 28 45
15 11 22 21 16 21 -15 0 -54 -39 -54 -55 0 -8 -8 -19 -19 -24 -15 -9 -27 -3
-65 32 -41 38 -46 48 -46 86 0 23 7 58 15 79 15 36 15 37 -3 14 l-18 -24 -24
45 c-21 40 -23 49 -12 84 14 48 96 158 143 194 92 70 124 71 182 6z m1511 36
c-6 -2 -9 -18 -8 -36 l3 -32 -8 30 c-7 29 5 63 18 49 3 -4 1 -8 -5 -11z m76
-37 c-15 -15 -22 -1 -14 30 l7 28 9 -24 c5 -14 5 -27 -2 -34z m3247 32 c-3 -8
-6 -5 -6 6 -1 11 2 17 5 13 3 -3 4 -12 1 -19z m851 15 c-10 -2 -28 -2 -40 0
-13 2 -5 4 17 4 22 1 32 -1 23 -4z m-4143 -60 c-4 -32 -14 -69 -22 -83 l-14
-25 5 25 c17 94 28 140 33 140 3 0 2 -26 -2 -57z m-1505 27 c0 -5 -4 -10 -9
-10 -6 0 -13 5 -16 10 -3 6 1 10 9 10 9 0 16 -4 16 -10z m294 -21 c-2 -4 0
-10 6 -14 5 -3 10 -1 10 4 0 17 17 13 24 -5 4 -9 2 -22 -4 -29 -6 -8 -6 -15 2
-23 7 -7 9 -12 5 -12 -13 0 -68 90 -61 101 4 8 9 7 15 -2 4 -7 6 -16 3 -20z
m3469 24 c-7 -2 -21 -2 -30 0 -10 3 -4 5 12 5 17 0 24 -2 18 -5z m1731 -11
c-12 -9 -24 -24 -27 -32 -4 -11 -6 -10 -6 4 -1 10 7 25 17 32 26 20 40 16 16
-4z m246 -2 c39 -27 38 -36 -5 -54 -24 -10 -43 -30 -64 -68 -18 -32 -47 -65
-70 -80 -24 -16 -37 -20 -34 -12 6 18 -22 51 -59 70 -38 20 -43 18 -67 -18
-31 -49 -26 -30 18 65 52 113 84 130 155 82 23 -15 36 -20 36 -12 0 19 -20 36
-35 31 -7 -3 -15 -2 -18 3 -3 5 21 10 54 11 47 3 65 -1 89 -18z m-2100 0 c-14
-4 -34 -8 -45 -8 l-20 -1 20 9 c11 5 31 8 45 8 l25 0 -25 -8z m494 -34 c2 -20
1 -34 -3 -31 -3 3 -6 22 -8 42 -1 19 0 33 3 30 3 -3 7 -21 8 -41z m665 0 c-9
-8 -10 -7 -5 7 3 10 7 24 7 30 1 7 3 4 6 -7 3 -10 -1 -23 -8 -30z m985 28 c3
-8 2 -12 -4 -9 -6 3 -10 10 -10 16 0 14 7 11 14 -7z m-897 -36 c-3 -7 -5 -2
-5 12 0 14 2 19 5 13 2 -7 2 -19 0 -25z m-4867 12 c0 -5 -2 -10 -4 -10 -3 0
-8 5 -11 10 -3 6 -1 10 4 10 6 0 11 -4 11 -10z m3740 0 c0 -5 -12 -10 -26 -10
-14 0 -23 4 -19 10 3 6 15 10 26 10 10 0 19 -4 19 -10z m-100 -10 c0 -5 -19
-10 -42 -9 -33 0 -38 2 -23 9 28 12 65 12 65 0z m2197 4 c-3 -3 -12 -4 -19 -1
-8 3 -5 6 6 6 11 1 17 -2 13 -5z m-1671 -30 c-4 -16 -3 -23 3 -20 5 4 9 -2 9
-11 -4 -77 125 -221 240 -266 49 -20 102 -22 102 -5 0 9 3 9 12 0 9 -9 7 -16
-7 -32 -10 -11 -16 -20 -12 -20 3 0 33 29 68 65 68 71 132 116 196 139 37 13
45 13 104 -9 35 -12 76 -29 90 -37 l26 -14 -24 -29 c-53 -66 -101 -181 -118
-287 -7 -44 -16 -46 -91 -23 -55 17 -210 20 -219 5 -4 -6 27 -10 85 -10 50 0
119 -7 154 -16 l64 -16 11 -56 c6 -32 22 -81 36 -110 14 -30 25 -56 25 -58 0
-2 -12 -4 -26 -4 -15 0 -23 4 -19 11 4 6 14 8 24 4 12 -5 13 -3 4 6 -7 7 -45
12 -96 13 -47 0 -83 5 -80 10 3 4 -5 5 -17 1 -15 -5 -20 -3 -16 3 6 11 -31 28
-41 19 -11 -11 -183 85 -215 121 -19 21 -47 69 -63 107 -16 39 -45 88 -66 110
-44 48 -71 99 -94 180 -9 33 -26 76 -37 95 -50 85 -58 101 -48 95 5 -3 10 3
10 14 0 12 5 21 10 21 6 0 10 7 10 15 0 8 3 15 6 15 3 0 3 -12 0 -26z m634 -3
c0 -16 -6 -31 -14 -34 -12 -5 -12 0 -5 26 5 18 9 33 9 34 0 2 2 3 5 3 3 0 5
-13 5 -29z m-4756 4 c3 -8 1 -15 -4 -15 -6 0 -10 7 -10 15 0 8 2 15 4 15 2 0
6 -7 10 -15z m1479 0 c-3 -9 -8 -14 -10 -11 -3 3 -2 9 2 15 9 16 15 13 8 -4z
m-755 -29 c24 -13 90 -94 80 -100 -2 -1 -28 -8 -58 -16 -66 -16 -124 -39 -117
-47 3 -3 32 4 64 15 103 35 116 35 165 0 56 -41 129 -117 170 -176 17 -25 34
-40 36 -34 2 7 -2 20 -10 30 -7 9 1 5 19 -8 26 -20 32 -32 32 -63 1 -34 -1
-37 -19 -27 -16 9 -22 6 -34 -18 -8 -15 -26 -33 -41 -40 -27 -13 -164 -16
-226 -6 -36 6 -37 7 -42 61 -7 63 -49 159 -107 242 -42 60 -132 141 -156 141
-33 0 -9 20 57 48 60 25 77 28 115 21 24 -5 56 -15 72 -23z m4257 20 c19 -8
55 -29 81 -46 l46 -32 -24 -16 c-13 -8 -46 -33 -75 -54 l-51 -39 -61 30 c-33
17 -67 31 -75 31 -8 0 -22 7 -31 16 -15 16 -14 20 22 56 31 32 71 53 131 67 1
1 18 -5 37 -13z m810 4 c-3 -5 -12 -7 -20 -4 -20 8 -45 -36 -38 -69 l6 -28 18
40 c10 23 30 46 46 55 28 14 32 13 70 -10 55 -33 119 -114 139 -179 l17 -52
-28 -46 c-22 -38 -26 -54 -20 -86 8 -49 -13 -93 -60 -124 -19 -12 -46 -44 -61
-71 -21 -37 -37 -53 -73 -69 -25 -11 -52 -20 -59 -20 -6 0 -10 -2 -8 -5 7 -7
-27 -42 -63 -64 -28 -17 -35 -19 -43 -7 -8 11 -9 11 -5 -2 4 -13 -8 -22 -50
-37 -67 -25 -85 -18 -114 47 -24 55 -24 55 6 35 13 -9 30 -14 37 -12 8 3 0 12
-18 21 -17 9 -42 28 -55 42 -13 15 -41 37 -61 51 -34 22 -37 27 -31 56 9 51
41 81 81 74 48 -7 112 -42 160 -87 24 -21 53 -39 65 -39 20 0 19 2 -8 20 -16
11 -55 38 -85 60 -30 22 -73 45 -95 52 -54 16 -65 26 -65 58 0 49 30 88 77 99
86 22 135 6 253 -82 75 -57 110 -71 50 -20 -101 85 -159 116 -230 123 -48 4
-55 8 -58 28 -2 15 9 38 32 66 50 62 133 92 92 34 -9 -13 -15 -40 -15 -63 2
-30 3 -33 6 -12 2 15 9 27 14 27 5 0 9 8 9 18 0 19 52 72 71 72 17 0 96 -49
181 -112 78 -58 102 -68 51 -22 -50 45 -173 125 -214 140 -23 7 -52 11 -65 8
-17 -4 -24 -2 -24 7 0 24 39 79 63 89 30 12 130 13 122 0z m-1739 -26 c4 -14
21 -47 39 -73 18 -25 47 -89 64 -141 34 -97 52 -130 106 -190 17 -19 42 -62
55 -95 13 -33 30 -70 38 -83 22 -34 118 -105 187 -137 33 -15 62 -30 65 -34 3
-3 12 -7 20 -8 44 -6 110 -28 110 -35 0 -5 3 -7 8 -4 4 2 42 0 84 -4 61 -7 84
-15 121 -41 25 -17 63 -35 84 -39 l38 -8 -43 -1 -44 -1 8 -32 c7 -36 8 -42 6
-75 -1 -16 -8 -23 -22 -23 -18 0 -20 -7 -20 -70 0 -63 -2 -70 -20 -70 -18 0
-20 -7 -20 -70 0 -63 -2 -70 -20 -70 -13 0 -20 -7 -20 -20 0 -13 -7 -20 -20
-20 -18 0 -20 -7 -20 -70 0 -63 -2 -70 -20 -70 -17 0 -20 -7 -20 -40 0 -33 -3
-40 -20 -40 -17 0 -20 -7 -20 -40 0 -33 3 -40 20 -40 13 0 20 -7 20 -20 0 -13
-7 -20 -20 -20 -33 0 -23 -16 18 -28 l37 -11 -37 2 c-20 2 -34 -1 -31 -6 3 -5
-5 -6 -18 -2 -14 4 -20 4 -16 -1 5 -5 -15 -14 -45 -20 -29 -7 -114 -25 -188
-42 -74 -17 -148 -33 -165 -36 -16 -3 -47 -10 -69 -16 -21 -7 -47 -9 -57 -7
-11 3 -17 2 -14 -3 6 -10 -67 -22 -76 -12 -4 4 -24 59 -44 122 -21 63 -65 178
-98 255 -54 126 -61 149 -67 232 -7 88 -10 97 -64 193 -31 56 -53 106 -50 112
4 6 2 8 -4 4 -11 -7 -55 57 -55 80 0 8 -3 12 -5 9 -3 -3 -11 4 -19 14 -11 16
-10 24 2 47 8 15 11 32 8 37 -8 14 -8 128 1 154 4 13 22 27 42 35 18 6 34 15
34 19 0 4 9 11 20 14 34 11 41 38 26 96 -13 53 -13 54 25 129 21 41 45 109 55
150 9 41 20 82 24 90 11 20 83 97 92 99 4 0 11 -11 14 -25z m750 -14 c-23 -29
-26 -29 -26 -10 0 12 4 18 10 15 5 -3 15 3 22 14 7 11 14 18 16 16 3 -2 -7
-18 -22 -35z m584 34 c0 -8 -19 -13 -24 -6 -3 5 1 9 9 9 8 0 15 -2 15 -3z
m-1815 -14 c-11 -5 -38 -8 -60 -8 -34 0 -36 1 -15 8 14 4 41 8 60 8 28 1 31
-1 15 -8z m2189 -15 c-9 -14 -19 -23 -22 -20 -5 4 26 45 35 45 2 0 -4 -11 -13
-25z m-4300 7 c2 -4 0 -14 -6 -22 -8 -12 -9 -12 -5 2 3 9 1 19 -6 22 -9 3 -9
5 0 5 6 1 14 -3 17 -7z m-1111 -14 c4 -15 -45 -48 -70 -48 -18 0 -12 10 9 14
31 7 46 19 41 32 -3 8 -1 14 5 14 6 0 12 -6 15 -12z m5009 -26 c-9 -18 -18
-28 -20 -22 -3 9 -7 9 -13 -1 -6 -9 -9 -10 -9 -2 0 6 7 19 16 27 8 9 13 19 10
24 -2 4 4 8 14 8 17 0 17 -2 2 -34z m-5302 13 c32 -16 40 -35 16 -35 -8 0 -16
-3 -19 -7 -2 -5 -2 -2 -1 5 2 6 -1 12 -6 12 -5 0 -14 9 -20 20 -13 24 -8 25
30 5z m3610 8 c0 -5 -11 -9 -25 -9 -14 -1 -22 2 -19 7 6 11 44 12 44 2z m-115
-13 c-28 -12 -57 -12 -50 0 3 6 21 10 38 9 27 0 29 -2 12 -9z m-2118 -28 c-7
-10 -13 -10 -15 -3 -2 6 -9 8 -14 5 -6 -4 -8 -3 -5 2 3 5 15 10 26 10 16 0 18
-3 8 -14z m2208 8 c-3 -5 -13 -10 -21 -10 -8 0 -12 5 -9 10 3 6 13 10 21 10 8
0 12 -4 9 -10z m-100 -10 c-11 -5 -27 -9 -35 -9 -13 -1 -13 0 0 9 8 5 24 9 35
9 l20 0 -20 -9z m1919 -11 c22 -17 26 -27 21 -48 -14 -54 -44 -65 -92 -33 -18
11 -24 12 -19 4 5 -8 22 -20 40 -28 17 -7 24 -13 15 -14 -24 0 -66 36 -64 57
2 29 38 83 56 83 9 0 28 -10 43 -21z m-5324 -42 c0 -12 0 -11 -24 28 l-17 30
20 -24 c12 -13 21 -28 21 -34z m1213 26 c-7 -2 -19 -2 -25 0 -7 3 -2 5 12 5
14 0 19 -2 13 -5z m3983 -9 c-3 -9 -6 -20 -6 -25 0 -5 -9 -4 -19 3 -15 9 -17
15 -9 25 15 19 42 17 34 -3z m314 13 c0 -2 -12 -14 -27 -28 -15 -13 -22 -16
-14 -7 7 9 10 22 6 28 -3 6 3 10 14 10 12 0 21 -1 21 -3z m-5397 -26 c4 -17 2
-18 -14 -8 -13 8 -15 13 -6 19 7 4 13 8 13 8 1 0 4 -9 7 -19z m1132 -21 c-8
-9 -15 -22 -15 -28 0 -7 -3 -11 -7 -10 -14 5 -53 -28 -45 -37 4 -5 1 -5 -5 -1
-14 8 -17 -4 -5 -19 4 -6 3 -7 -2 -2 -6 4 -14 7 -19 7 -4 0 -6 -3 -4 -7 3 -5
-7 -9 -21 -10 -24 -1 -24 0 -7 9 22 12 98 78 90 78 -3 0 2 11 11 24 9 15 21
23 30 19 13 -5 13 -8 -1 -23z m-1187 -37 c15 -10 14 -11 -5 -6 -18 4 -23 12
-22 37 2 27 2 27 6 6 3 -13 12 -30 21 -37z m1133 39 c-5 -9 -20 -26 -33 -37
-23 -20 -23 -19 1 8 14 15 20 27 15 27 -5 0 -2 5 6 10 21 13 22 13 11 -8z
m-1196 -22 c3 -5 1 -10 -4 -10 -6 0 -11 5 -11 10 0 6 2 10 4 10 3 0 8 -4 11
-10z m134 -12 c0 -13 -3 -17 -6 -10 -2 6 -10 9 -16 5 -7 -4 -6 1 2 10 18 22
21 21 20 -5z m4351 8 c0 -2 -8 -10 -17 -17 -16 -13 -17 -12 -4 4 13 16 21 21
21 13z m805 -46 c22 0 35 -17 35 -46 0 -8 -9 -14 -19 -14 -21 0 -64 -50 -75
-86 -4 -12 -18 -26 -32 -33 -15 -6 -24 -15 -20 -18 3 -4 12 -1 18 5 7 7 18 12
25 12 21 0 15 -35 -11 -59 -44 -41 -51 -73 -26 -121 12 -23 33 -47 48 -53 17
-8 28 -21 30 -37 2 -14 15 -40 29 -58 13 -18 19 -31 12 -30 -6 2 -14 -3 -16
-10 -3 -8 1 -10 11 -6 9 3 16 1 16 -5 0 -6 -11 -11 -25 -11 -14 0 -25 4 -25 9
0 5 -7 12 -16 15 -8 3 -12 2 -9 -4 12 -20 -18 -9 -39 13 -89 96 -126 160 -126
220 0 46 78 206 90 187 7 -10 10 3 10 42 0 32 7 76 16 98 l16 40 30 -25 c16
-14 40 -25 53 -25z m-5255 10 c11 -7 6 -10 -22 -10 -20 0 -40 5 -43 10 -8 13
45 13 65 0z m88 -2 c15 -15 16 -45 2 -53 -5 -3 -7 0 -4 9 3 9 -3 19 -16 26
-11 6 -18 15 -15 21 8 12 19 11 33 -3z m1099 -10 c-3 -8 -6 -5 -6 6 -1 11 2
17 5 13 3 -3 4 -12 1 -19z m3002 -24 c14 -12 -19 -1 -35 12 -18 14 -18 14 6 3
14 -6 27 -13 29 -15z m-3019 -44 c-6 -23 -13 -40 -15 -38 -2 2 1 23 7 46 6 24
13 41 15 38 2 -2 -1 -23 -7 -46z m3194 41 c3 -5 -2 -15 -12 -22 -15 -12 -16
-12 -5 2 7 9 10 19 6 22 -3 4 -4 7 0 7 3 0 8 -4 11 -9z m-4231 -14 c3 -8 -1
-14 -8 -14 -7 0 -11 6 -8 14 3 7 6 13 8 13 2 0 5 -6 8 -13z m727 -28 c0 -6 -4
-7 -10 -4 -5 3 -10 11 -10 16 0 6 5 7 10 4 6 -3 10 -11 10 -16z m-756 -39 c4
-25 3 -31 -4 -20 -5 8 -10 26 -10 39 0 32 6 24 14 -19z m46 30 c0 -16 -17 -20
-28 -7 -8 10 -6 13 9 14 10 1 19 -2 19 -7z m-93 -36 c-3 -3 -12 -4 -19 -1 -8
3 -5 6 6 6 11 1 17 -2 13 -5z m109 -9 c-3 -8 0 -15 6 -15 6 0 9 -3 5 -6 -10
-11 -26 6 -20 21 3 8 7 15 10 15 3 0 3 -7 -1 -15z m984 -4 c0 -6 -5 -13 -12
-17 -6 -4 -8 -3 -4 4 3 5 0 13 -6 15 -8 3 -6 6 5 6 9 1 17 -3 17 -8z m-1060
-16 c10 -12 10 -15 -4 -15 -25 0 -30 -1 -50 -12 -12 -7 -16 -7 -12 0 3 6 -2
12 -11 15 -13 2 -7 7 17 14 47 15 46 15 60 -2z m55 -13 c-3 -3 -11 0 -18 7 -9
10 -8 11 6 5 10 -3 15 -9 12 -12z m-5 -65 c0 -5 -6 -7 -12 -5 -7 3 -14 18 -15
34 l-2 29 14 -25 c8 -14 14 -29 15 -33z m57 -39 c-2 -13 -4 -3 -4 22 0 25 2
35 4 23 2 -13 2 -33 0 -45z m897 37 c-9 -14 -21 -25 -28 -25 -6 0 -4 5 4 10 8
5 11 10 6 10 -6 0 -1 7 10 15 26 20 27 19 8 -10z m-927 -7 c-3 -8 -6 -5 -6 6
-1 11 2 17 5 13 3 -3 4 -12 1 -19z m-37 -18 c0 -5 -10 -15 -22 -21 -23 -12
-23 -12 -4 10 21 23 26 26 26 11z m918 -40 c-7 -11 -14 -17 -17 -15 -2 3 1 11
7 18 7 8 8 18 4 22 -4 5 -1 5 5 1 10 -5 10 -11 1 -26z m-945 -30 c3 -11 1 -18
-4 -14 -5 3 -9 12 -9 20 0 20 7 17 13 -6z m68 -27 c-12 -20 -14 -14 -5 12 4 9
9 14 11 11 3 -2 0 -13 -6 -23z m449 11 c0 -2 -9 -4 -20 -4 -11 0 -20 4 -20 9
0 5 9 7 20 4 11 -3 20 -7 20 -9z m88 9 c-10 -2 -26 -2 -35 0 -10 3 -2 5 17 5
19 0 27 -2 18 -5z m89 1 c-3 -3 -12 -4 -19 -1 -8 3 -5 6 6 6 11 1 17 -2 13 -5z
m223 2 c0 -2 -8 -10 -17 -17 -16 -13 -17 -12 -4 4 13 16 21 21 21 13z m-165
-24 c-3 -3 -11 0 -18 7 -9 10 -8 11 6 5 10 -3 15 -9 12 -12z m-60 -14 c7 -8 5
-9 -7 -5 -10 4 -18 3 -18 -1 0 -10 -84 -49 -143 -67 -29 -9 -47 -10 -47 -4 0
6 -5 7 -11 3 -8 -5 -8 -1 0 13 6 11 7 24 3 28 -4 5 -2 5 4 2 7 -4 15 0 18 9 4
10 2 13 -6 8 -6 -4 -8 -3 -4 4 3 6 14 11 24 11 9 0 37 5 62 10 50 10 110 5
125 -11z m-688 -30 c-3 -7 -5 -2 -5 12 0 14 2 19 5 13 2 -7 2 -19 0 -25z m883
22 c0 -5 -5 -10 -11 -10 -5 0 -7 5 -4 10 3 6 8 10 11 10 2 0 4 -4 4 -10z
m-913 -40 c-1 -11 -6 -20 -12 -20 -5 0 -3 -5 5 -10 13 -8 12 -10 -4 -10 -12 0
-16 -5 -12 -15 8 -22 -1 -18 -14 5 -8 15 -7 26 6 45 20 30 33 32 31 5z m889
-6 c-4 -9 -9 -15 -11 -12 -3 3 -3 13 1 22 4 9 9 15 11 12 3 -3 3 -13 -1 -22z
m-836 -30 c0 -8 -19 -13 -24 -6 -3 5 1 9 9 9 8 0 15 -2 15 -3z m790 -4 c0 -5
-5 -10 -11 -10 -5 0 -7 5 -4 10 3 6 8 10 11 10 2 0 4 -4 4 -10z m-374 -28
c-18 -16 -18 -16 -6 6 6 13 14 21 18 18 3 -4 -2 -14 -12 -24z m-447 5 c-2 -1
-13 -9 -24 -17 -19 -14 -19 -14 -6 3 7 9 18 17 24 17 6 0 8 -1 6 -3z m-152
-13 c-3 -3 -12 -4 -19 -1 -8 3 -5 6 6 6 11 1 17 -2 13 -5z m47 -2 c2 -4 -5 -9
-17 -9 -17 -2 -19 0 -7 7 18 12 18 12 24 2z m836 -14 c-12 -5 -25 -6 -28 -3
-3 3 0 5 7 5 7 0 10 4 7 9 -4 5 4 7 16 3 l22 -5 -24 -9z m-925 -16 c-3 -3 -11
0 -18 7 -9 10 -8 11 6 5 10 -3 15 -9 12 -12z m611 -22 c0 -12 -4 -16 -9 -11
-5 5 -6 14 -3 20 10 15 12 14 12 -9z m251 14 c-3 -3 -12 -4 -19 -1 -8 3 -5 6
6 6 11 1 17 -2 13 -5z m-833 -12 c3 -5 -1 -9 -9 -9 -8 0 -15 4 -15 9 0 4 4 8
9 8 6 0 12 -4 15 -8z m781 -2 c-3 -5 -12 -10 -18 -10 -7 0 -6 4 3 10 19 12 23
12 15 0z m4594 -23 c8 -10 7 -14 -4 -14 -8 0 -15 6 -15 14 0 7 2 13 4 13 2 0
9 -6 15 -13z m-4814 -7 c3 -5 -1 -10 -10 -10 -9 0 -13 5 -10 10 3 6 8 10 10
10 2 0 7 -4 10 -10z m152 4 c-3 -3 -12 -4 -19 -1 -8 3 -5 6 6 6 11 1 17 -2 13
-5z m3970 0 c-3 -3 -12 -4 -19 -1 -8 3 -5 6 6 6 11 1 17 -2 13 -5z m-4030 -10
c-3 -3 -12 -4 -19 -1 -8 3 -5 6 6 6 11 1 17 -2 13 -5z m4808 -4 c-3 -5 -12
-10 -18 -10 -7 0 -6 4 3 10 19 12 23 12 15 0z m-5385 -10 c8 -5 11 -10 5 -10
-5 0 -17 5 -25 10 -8 5 -10 10 -5 10 6 0 17 -5 25 -10z m67 -6 c-3 -3 -12 -4
-19 -1 -8 3 -5 6 6 6 11 1 17 -2 13 -5z m5190 -15 c-9 -6 -15 -14 -12 -18 2
-5 -11 -8 -30 -8 -39 1 -37 7 8 24 40 14 58 16 34 2z m-214 -26 c-7 -2 -21 -2
-30 0 -10 3 -4 5 12 5 17 0 24 -2 18 -5z m-83 -33 c-8 -5 -19 -10 -25 -10 -5
0 -3 5 5 10 8 5 20 10 25 10 6 0 3 -5 -5 -10z m-2364 -729 c-4 -201 -9 -393
-12 -425 l-6 -59 -14 32 c-17 40 -20 369 -5 496 5 44 13 137 16 207 5 83 11
126 17 122 7 -5 8 -128 4 -373z m30 -211 c-3 -107 -10 -213 -15 -235 -9 -36
-10 -34 -6 24 3 35 6 190 6 345 2 250 3 269 11 171 5 -60 7 -198 4 -305z
m2241 144 c-3 -3 -12 -4 -19 -1 -8 3 -5 6 6 6 11 1 17 -2 13 -5z m-144 -31
c-7 -2 -21 -2 -30 0 -10 3 -4 5 12 5 17 0 24 -2 18 -5z m-178 -443 c-3 -5 -16
-10 -28 -9 -20 1 -20 2 3 9 14 4 26 8 28 9 2 1 0 -3 -3 -9z m-140 -36 c-30
-23 -92 -37 -113 -25 -16 10 -15 11 3 12 42 3 61 7 85 17 36 15 48 14 25 -4z
m-50 -54 c15 -7 10 -9 -23 -9 -26 -1 -41 3 -37 9 7 12 32 12 60 0z m-4002 -27
c-7 -2 -19 -2 -25 0 -7 3 -2 5 12 5 14 0 19 -2 13 -5z"/>
<path d="M4838 7043 c6 -2 18 -2 25 0 6 3 1 5 -13 5 -14 0 -19 -2 -12 -5z"/>
<path d="M5640 6260 c0 -11 5 -20 10 -20 6 0 10 9 10 20 0 11 -4 20 -10 20 -5
0 -10 -9 -10 -20z"/>
<path d="M5699 3213 c-13 -16 -12 -17 4 -4 16 13 21 21 13 21 -2 0 -10 -8 -17
-17z"/>
<path d="M3595 6591 c-3 -5 -2 -12 3 -15 5 -3 9 1 9 9 0 17 -3 19 -12 6z"/>
<path d="M1930 5075 c-10 -13 -9 -15 11 -15 18 0 20 3 10 9 -11 7 -9 10 10 14
21 4 22 4 3 6 -12 0 -27 -6 -34 -14z"/>
<path d="M1720 4750 c0 -5 9 -10 20 -10 11 0 20 5 20 10 0 6 -9 10 -20 10 -11
0 -20 -4 -20 -10z"/>
<path d="M1525 3269 c-4 -6 -5 -12 -2 -15 2 -3 7 2 10 11 7 17 1 20 -8 4z"/>
<path d="M1245 2301 c-3 -5 0 -13 6 -17 8 -4 9 -3 5 4 -5 9 5 10 35 7 24 -3
41 -3 37 0 -10 10 -77 15 -83 6z"/>
<path d="M3825 4418 c-38 -4 -85 -9 -102 -10 -18 -2 -33 -7 -33 -11 0 -8 43
-6 203 9 68 7 82 16 30 18 -16 1 -59 -2 -98 -6z"/>
<path d="M3272 4410 c-29 -4 -55 -10 -57 -11 -2 -2 62 -5 141 -5 79 -1 144 2
144 5 0 4 -8 7 -17 7 -10 0 -49 3 -88 6 -38 3 -94 2 -123 -2z"/>
<path d="M3603 4298 c4 -39 2 -70 -3 -73 -16 -10 -11 -25 5 -19 8 4 15 12 15
20 0 8 6 11 15 8 8 -4 15 -1 15 5 0 6 -6 10 -12 9 -8 -2 -15 15 -18 49 -3 28
-9 55 -14 60 -5 4 -6 -21 -3 -59z"/>
<path d="M3575 4183 c-11 -3 -24 -9 -30 -15 -7 -6 -1 -7 15 -3 14 3 48 10 75
14 l50 9 -45 0 c-25 0 -54 -2 -65 -5z"/>
<path d="M3582 4131 c-19 -11 17 -20 53 -13 19 3 23 7 13 13 -17 11 -49 11
-66 0z"/>
<path d="M4164 2674 c-22 -26 -57 -68 -79 -94 -22 -25 -68 -81 -102 -123 -65
-79 -140 -145 -202 -177 -20 -10 -45 -27 -55 -39 -19 -21 -19 -21 1 -21 48 0
304 227 371 329 20 31 54 80 75 109 49 67 42 79 -9 16z"/>
<path d="M5540 2189 c0 -5 5 -7 10 -4 6 3 10 8 10 11 0 2 -4 4 -10 4 -5 0 -10
-5 -10 -11z"/>
<path d="M700 2406 c0 -2 12 -24 26 -47 15 -26 22 -34 18 -19 -10 35 -44 86
-44 66z"/>
<path d="M460 2186 c-5 -15 -10 -39 -9 -54 0 -19 4 -12 14 23 14 55 12 74 -5
31z"/>
<path d="M510 1985 c-7 -20 -10 -39 -7 -41 3 -3 10 11 17 31 7 20 10 39 7 41
-3 3 -10 -11 -17 -31z"/>
<path d="M661 1843 c-14 -48 -14 -60 -2 -47 11 10 26 84 18 84 -4 0 -11 -17
-16 -37z"/>
<path d="M859 1763 c-13 -16 -12 -17 4 -4 16 13 21 21 13 21 -2 0 -10 -8 -17
-17z"/>
<path d="M838 1720 c-12 -38 -10 -66 3 -53 6 6 9 26 7 44 -3 32 -3 33 -10 9z"/>
<path d="M1090 2340 c0 -5 5 -10 10 -10 6 0 10 5 10 10 0 6 -4 10 -10 10 -5 0
-10 -4 -10 -10z"/>
<path d="M6357 1965 c-9 -20 -17 -46 -16 -58 0 -16 7 -8 24 28 26 55 29 65 17
65 -5 0 -16 -16 -25 -35z"/>
<path d="M6740 1942 c0 -5 10 -17 21 -28 22 -19 22 -19 10 3 -12 24 -31 39
-31 25z"/>
<path d="M6255 1790 c-16 -16 -26 -32 -23 -35 3 -3 13 6 22 20 10 14 27 30 39
35 14 6 16 9 6 9 -8 1 -28 -12 -44 -29z"/>
<path d="M6590 1751 c0 -6 4 -13 10 -16 6 -3 7 1 4 9 -7 18 -14 21 -14 7z"/>
<path d="M5210 1616 c7 -7 13 -7 20 0 6 6 3 10 -10 10 -13 0 -16 -4 -10 -10z"/>
<path d="M5720 1450 c0 -5 7 -7 15 -4 8 4 15 2 15 -3 0 -6 11 -15 25 -21 35
-16 31 0 -6 21 -35 19 -49 22 -49 7z"/>
<path d="M5487 571 c-6 -24 17 -35 44 -21 22 13 26 25 4 16 -9 -3 -15 0 -15 9
0 22 -27 18 -33 -4z"/>
<path d="M2201 2147 c-13 -21 -12 -21 5 -5 10 10 16 20 13 22 -3 3 -11 -5 -18
-17z"/>
<path d="M1525 1450 c-8 -13 5 -13 25 0 13 8 13 10 -2 10 -9 0 -20 -4 -23 -10z"/>
</g>
</svg>
